<svg xmlns="http://www.w3.org/2000/svg" viewBox="0 0 1492.26 396.6"><defs><style>.cls-1{fill:#c6000b;}</style></defs><g id="图层_2" data-name="图层 2"><g id="图层_1-2" data-name="图层 1"><path id="logo-2" class="cls-1" d="M189.89,396.6a190.35,190.35,0,0,1-152.5-77.67h0a3.79,3.79,0,0,1-1-2.52,3.91,3.91,0,0,1,3.89-3.92,3.83,3.83,0,0,1,2.92,1.38c74.74,81.6,201.48,87.18,283.09,12.44q5.75-5.26,11.06-10.95a3.89,3.89,0,0,1,6.79,2.65,4,4,0,0,1-1,2.52A190.33,190.33,0,0,1,190.91,396.6ZM361,311.2h0L121.2,264.69l48.66-56.24a21.31,21.31,0,0,0,10.42,15.35,20.81,20.81,0,0,0,8.25,2.7l94.52,18.34h0a2.32,2.32,0,0,0,2.87-3l-5.28-14.5A3.08,3.08,0,0,1,285,223.4a4.73,4.73,0,0,1,.46.32h0l.18.17,81.19,75.79h0a6.6,6.6,0,0,1-4.18,11.71A6.4,6.4,0,0,1,361,311.2ZM13.43,308a6.61,6.61,0,0,1,1-7.91h0L174.47,115.19l24.24,70.33a21.29,21.29,0,0,0-25,7.18l-63.08,72.86h0a2.24,2.24,0,0,0-.71,1.71,2.32,2.32,0,0,0,1.93,2.25l15.18,2.66h0a3,3,0,0,1,2.3,1.49,3.08,3.08,0,0,1-1.1,4.21h0a1.83,1.83,0,0,1-.49.23h0l-.26.07L21.44,310.88h0a6.56,6.56,0,0,1-8-2.87ZM1050,178.91V301.4H989.61V95.2h70.49l89.83,122.48V95.27h1.2V95.2h59.15V301.4H1139.8Zm273.62,122.48V227.23L1226.76,95.17h71.8l60.92,83.09,61-83.07h71.83l-96.89,132.06V301.4Zm-423,0-14.45-34.55H795.6l-14.47,34.55h-72.6l96-206.21h72.56l96,206.21Zm-82.67-87.75h45.93l-23-54.75ZM482.8,301.4v-58H642.63a8,8,0,1,0,0-16.09H540.85a66.06,66.06,0,0,1,0-132.12H700.68v58H540.85a8,8,0,1,0,0,16.09H642.63a66.06,66.06,0,1,1,0,132.11Zm-124-18.93a3.88,3.88,0,0,1-.3-3.24c33.29-106-25.63-218.86-131.59-252.15q-7-2.2-14.14-3.88a3.83,3.83,0,0,1-2.59-1.91A3.89,3.89,0,0,1,211.56,16a3.85,3.85,0,0,1,2.7-.41h0C319,28.66,393.36,124.2,380.27,229a191.16,191.16,0,0,1-14.49,52.8,3.87,3.87,0,0,1-4.9,2.45,3.82,3.82,0,0,1-2.13-1.74Zm-341.82-.41a3.79,3.79,0,0,1-1.7-2.11C-26,182.74,19.37,70.51,116.57,29.28a191.1,191.1,0,0,1,53-13.95A3.9,3.9,0,0,1,171,23C62.61,47.33-5.51,154.92,18.84,263.29q1.61,7.17,3.74,14.2a3.89,3.89,0,0,1-2.46,4.92,4,4,0,0,1-1.23.2A3.77,3.77,0,0,1,16.93,282.06Zm187.18-60a21.31,21.31,0,0,0,6.26-25.23L179,105.61h0a2.43,2.43,0,0,0-1.12-1.5,2.36,2.36,0,0,0-2.92.55L165,116.49a3.09,3.09,0,0,1-5.57-1.8,2.57,2.57,0,0,1,.06-.55v0l0-.24L184.63,5.5A6.39,6.39,0,0,1,190.94,0a6.62,6.62,0,0,1,6.36,4.8h0L277,236.2Z"/></g></g></svg>