<svg version="1.2" xmlns="http://www.w3.org/2000/svg" viewBox="0 0 1597 522" width="1597" height="522">
	<title>Zoomlion-logo-scaled-svg</title>
	<style>
		.s0 { fill: #aace3a } 
		.s1 { fill: #383842 } 
	</style>
	<g id="#aace3aff">
		<path id="Layer" fill-rule="evenodd" class="s0" d="m0.9 0.3c172.9 0.2 345.8 0 518.8 0.1 358.3 0 716.6 0 1075 0 0 2.4-0.1 4.8 0.1 7.2 0.5 2.6 0.2 5.2 0.3 7.7q0 246.7 0 493.3c-0.1 2.4 0.3 4.8-0.3 7q-0.2 1.8-0.2 3.5c0.5 0.1 1.3 0.2 1.7 0.2-0.4 0.1-1.3 0.2-1.7 0.3 0 0.5 0.1 1.5 0.2 2-531.4 0.1-1062.9 0-1594.3 0.1 0-171.3 0-342.5 0-513.7 0-2.6-0.3-5.2 0.4-7.7zm412.3 185.9c-13.3 0.8-26.6 3.1-38.9 8.5-7.5 3.6-14.8 8.6-19.1 16-2.9 5-3.4 11-3.8 16.6-0.8 10.9-0.5 21.8-0.6 32.7 0.1 14-0.4 28.1 1.6 42 1.1 8.2 7.1 14.6 13.6 19.2 9.4 6.5 20.7 9.6 31.8 11.4 16.5 2.7 33.3 2.8 49.9 0.9 11.5-1.5 23-4.1 33.2-9.7 5.9-3.4 11.3-7.9 14.8-13.7 2.3-3.9 3-8.5 3.6-12.9 1-9.9 0.9-19.9 0.9-29.9-0.1-13.1 0.3-26.2-0.5-39.3-0.6-6.9-1.2-14.3-5.5-19.9-7.3-9.5-18.6-14.7-29.9-17.7-16.7-4.4-34-5.1-51.1-4.2zm165.5 0.5c-8.7 0.9-17.5 2.4-25.8 5.3-10 3.3-20.1 8.8-25.8 18-3.7 6-3.7 13.3-4.3 20-0.4 10.2-0.4 20.5-0.3 30.7 0 12.3-0.4 24.7 0.9 37 0.5 4.7 1.4 9.7 4.2 13.7 4.1 5.9 10 10.4 16.4 13.6 9.2 4.6 19.4 6.8 29.6 8.3 17 2.2 34.4 2.1 51.3-0.7 12.2-2.1 24.7-5.6 34.4-13.5 5.3-4.1 9.6-9.8 10.8-16.5 1.3-7.2 1.3-14.6 1.6-21.9 0-18 0.5-36.1-0.6-54-0.6-6-1-12.4-4.6-17.5-4.8-7.1-12.3-12-20.1-15.3-10.4-4.3-21.5-6.2-32.6-7.3-11.7-1-23.4-1-35.1 0.1zm572.2-0.1c-15.7 1.5-32.2 4.8-45 14.7-5.4 4.1-9.8 10-11.1 16.8-1.3 8.1-1.3 16.4-1.6 24.6 0 16.5-0.3 33.1 0.5 49.7 0.6 5.9 0.6 12.2 3.8 17.4 3.2 5.7 8.4 10 14 13.4 12.1 6.9 26.1 9.5 39.8 10.9 16.9 1.4 34.1 0.9 50.7-2.7 11.7-2.6 23.7-7 32-16 3.5-3.5 6-8 6.9-12.9 1.5-9.2 1.4-18.5 1.6-27.8 0-10.9 0-21.8-0.1-32.7-0.1-8.5 0-17-1.9-25.3-1.3-6-5.4-10.9-9.9-14.7-9-7.7-20.6-11.2-32-13.5-15.7-2.9-31.8-3.2-47.7-1.9zm-960.6 2.2c0.2 10.1 0 20.3 0 30.4 25.2 0.2 50.4 0 75.6 0.1 3.1 0 6.2-0.2 9.4 0.2-9.4 9.3-18.8 18.5-28.2 27.7-11 10.4-21.5 21.2-32.3 31.7-8.3 7.9-16.4 15.9-24.5 23.9 0 9.9 0.1 19.8 0 29.7q71 0.1 141.9 0c-0.1-10.3 0-20.5 0-30.8-28.4-0.1-56.8 0.1-85.2-0.1 11.1-11.5 22.8-22.4 34.2-33.6 16.6-16.7 33.8-32.8 50.3-49.6 0.4-9.8-0.1-19.7 0.2-29.6-7.7-0.4-15.5-0.1-23.2-0.2q-55.7 0-111.3 0c-2.3 0-4.6-0.2-6.9 0.2zm503.7 0c0 47.9 0 95.8 0 143.6 12.4 0.3 24.8 0 37.2 0.1 0.2-36.5 0-72.9 0.1-109.4q14.3 54.7 28.5 109.4 17 0 33.9 0c1.9-7.9 4-15.7 6-23.6 7.6-29.2 14.8-58.5 22.5-87.6q0.2 2.4 0.2 4.7c0 35.5 0 71 0 106.5 12.4 0.1 24.8 0 37.3 0q-0.1-71.8 0-143.7c-2.8-0.2-5.5-0.2-8.2-0.2-18.9 0.2-37.9-0.1-56.8 0.2-2.4 10.4-5 20.8-7.6 31.3-3.4 13.6-6.5 27.2-10.1 40.7-5.7-24-12.2-47.9-17.8-72-4.8-0.3-9.6-0.1-14.4-0.2-16.9 0.2-33.9-0.1-50.8 0.2zm191.6-0.1c0 48 0 95.9 0 143.8 39 0 78 0.1 117 0-0.1-11.8 0.1-23.6-0.1-35.4q-35.5 0.1-70.9 0c0.1-36.1 0-72.2 0.1-108.3-15.4-0.4-30.8 0-46.1-0.1zm139.3 0c0 47.9 0 95.9 0 143.8 15.4 0.1 30.7 0 46.1 0q-0.1-71.8 0-143.7c-15.4-0.2-30.7-0.2-46.1-0.1zm239.8 0.1q0 71.8 0 143.7c14.3 0.1 28.5 0 42.7 0 0.2-26.2-0.1-52.4 0.2-78.7 18.4 26.1 36.5 52.3 54.9 78.4 0.7 0.5 1.8 0.2 2.7 0.3 13.4 0 26.9 0.1 40.4 0q0-71.9 0-143.8c-4.4-0.1-8.8 0-13.2-0.1-9.9 0.2-19.8-0.3-29.7 0.2 0 26.5 0.2 52.9-0.1 79.3-18.4-26.3-36.7-52.7-55.1-79.1-2.9-0.6-6-0.2-9-0.3-11.2 0-22.5-0.2-33.8 0.1z"/>
		<path id="Layer" class="s0" d="m418.7 221c8.7-1 18-0.4 26.1 3.3 5.5 2.7 10.4 7.9 10.8 14.3 0.7 7.4 0.5 14.7 0.5 22 0 7.2 0.2 14.4-0.5 21.5-0.4 5.7-4.4 10.5-9.2 13.3-6.2 3.6-13.6 4.6-20.7 4.7-7.7-0.2-15.8-1.3-22.2-5.8-3.4-2.7-6.5-6.2-7.2-10.6-1-7.2-0.8-14.5-0.8-21.7 0-7.6-0.2-15.2 0.4-22.7 0.3-5.2 3.4-10 7.6-13 4.4-3.1 9.8-4.7 15.2-5.3z"/>
		<path id="Layer" class="s0" d="m589.3 221.1c9-1.1 18.5-0.6 26.9 3.2 5.4 2.6 10.2 7.5 10.8 13.7 0.9 8.2 0.7 16.5 0.7 24.7 0.1 6.5 0 13-0.6 19.4-0.6 6-4.8 10.9-9.8 13.7-6.8 3.6-14.7 4.5-22.3 4.2-7.5-0.4-15.4-1.8-21.3-6.8-3.7-3-6.3-7.6-6.3-12.5-0.5-11.1-0.3-22.3-0.3-33.4 0.3-5.1-0.4-10.8 2.6-15.3 4-6.8 12.1-9.8 19.6-10.9z"/>
		<path id="Layer" class="s0" d="m1159.6 221.2c7.3-1.1 14.9-0.9 22.1 1.1 5.5 1.5 10.9 4.4 13.9 9.3 2.6 3.8 2.6 8.6 2.8 13 0.2 10.5 0.2 20.9 0 31.3-0.2 4.4-0.2 9.2-2.8 13-3.7 6-10.6 8.9-17.2 10.3-8.8 1.5-18.1 1.2-26.7-1.8-6.6-2.4-12.7-8-13.3-15.4-0.8-7.3-0.5-14.7-0.6-22 0.1-7.4-0.2-14.7 0.6-22 0.4-3.3 1.9-6.4 4.2-8.7 4.3-4.9 10.7-7.1 17-8.1z"/>
	</g>
	<g id="#383842ff">
		<path id="Layer" fill-rule="evenodd" class="s1" d="m413.2 186.2c17.1-0.9 34.4-0.2 51.1 4.2 11.3 3 22.6 8.2 29.9 17.7 4.3 5.6 4.9 13 5.5 19.9 0.8 13.1 0.4 26.2 0.5 39.3 0 10 0.1 20-0.9 29.9-0.6 4.4-1.3 9-3.6 12.9-3.5 5.8-8.9 10.3-14.8 13.7-10.2 5.6-21.7 8.2-33.2 9.7-16.6 1.9-33.4 1.8-49.9-0.9-11.1-1.8-22.4-4.9-31.8-11.4-6.5-4.6-12.5-11-13.6-19.2-2-13.9-1.5-28-1.6-42 0.1-10.9-0.2-21.8 0.6-32.7 0.4-5.6 0.9-11.6 3.8-16.6 4.3-7.4 11.6-12.4 19.1-16 12.3-5.4 25.6-7.7 38.9-8.5zm5.5 34.8c-5.4 0.6-10.8 2.2-15.2 5.3-4.2 3-7.3 7.8-7.6 13-0.6 7.5-0.4 15.1-0.4 22.7 0 7.2-0.2 14.5 0.8 21.7 0.7 4.4 3.8 7.9 7.2 10.6 6.4 4.5 14.5 5.6 22.2 5.8 7.1-0.1 14.5-1.1 20.7-4.7 4.8-2.8 8.8-7.6 9.2-13.3 0.7-7.1 0.5-14.3 0.5-21.5 0-7.3 0.2-14.6-0.5-22-0.4-6.4-5.3-11.6-10.8-14.3-8.1-3.7-17.4-4.3-26.1-3.3z"/>
		<path id="Layer" fill-rule="evenodd" class="s1" d="m578.7 186.7c11.7-1.1 23.4-1.1 35.1-0.1 11.1 1.1 22.2 3 32.6 7.3 7.8 3.3 15.3 8.2 20.1 15.3 3.6 5.1 4 11.5 4.6 17.5 1.1 17.9 0.6 36 0.6 54-0.3 7.3-0.3 14.7-1.6 21.9-1.2 6.7-5.5 12.4-10.8 16.5-9.7 7.9-22.2 11.4-34.4 13.5-16.9 2.8-34.3 2.9-51.3 0.7-10.2-1.5-20.4-3.7-29.6-8.3-6.4-3.2-12.3-7.7-16.4-13.6-2.8-4-3.7-9-4.2-13.7-1.3-12.3-0.9-24.7-0.9-37-0.1-10.2-0.1-20.5 0.3-30.7 0.6-6.7 0.6-14 4.3-20 5.7-9.2 15.8-14.7 25.8-18 8.3-2.9 17.1-4.4 25.8-5.3zm10.6 34.4c-7.5 1.1-15.6 4.1-19.6 10.9-3 4.5-2.3 10.2-2.6 15.3 0 11.1-0.2 22.3 0.3 33.4 0 4.9 2.6 9.5 6.3 12.5 5.9 5 13.8 6.4 21.3 6.8 7.6 0.3 15.5-0.6 22.3-4.2 5-2.8 9.2-7.7 9.8-13.7 0.6-6.4 0.7-12.9 0.6-19.4 0-8.2 0.2-16.5-0.7-24.7-0.6-6.2-5.4-11.1-10.8-13.7-8.4-3.8-17.9-4.3-26.9-3.2z"/>
		<path id="Layer" fill-rule="evenodd" class="s1" d="m1150.9 186.6c15.9-1.3 32-1 47.7 1.9 11.4 2.3 23 5.8 32 13.5 4.5 3.8 8.6 8.7 9.9 14.7 1.9 8.3 1.8 16.8 1.9 25.3 0.1 10.9 0.1 21.8 0.1 32.7-0.2 9.3-0.1 18.6-1.6 27.8-0.9 4.9-3.4 9.4-6.9 12.9-8.3 9-20.3 13.4-32 16-16.6 3.6-33.8 4.1-50.7 2.7-13.7-1.4-27.7-4-39.8-10.9-5.6-3.4-10.8-7.7-14-13.4-3.2-5.2-3.2-11.5-3.8-17.4-0.8-16.6-0.5-33.2-0.5-49.7 0.3-8.2 0.3-16.5 1.6-24.6 1.3-6.8 5.7-12.7 11.1-16.8 12.8-9.9 29.3-13.2 45-14.7zm8.7 34.6c-6.3 1-12.7 3.2-17 8.1-2.3 2.3-3.8 5.4-4.2 8.7-0.8 7.3-0.5 14.6-0.6 22 0.1 7.3-0.2 14.7 0.6 22 0.6 7.4 6.7 13 13.3 15.4 8.6 3 17.9 3.3 26.7 1.8 6.6-1.4 13.5-4.3 17.2-10.3 2.6-3.8 2.6-8.6 2.8-13 0.2-10.4 0.2-20.8 0-31.3-0.2-4.4-0.2-9.2-2.8-13-3-4.9-8.4-7.8-13.9-9.3-7.2-2-14.8-2.2-22.1-1.1z"/>
		<path id="Layer" class="s1" d="m190.3 188.8c2.3-0.4 4.6-0.2 6.9-0.2q55.6 0 111.3 0c7.7 0.1 15.5-0.2 23.2 0.2-0.3 9.9 0.2 19.8-0.2 29.6-16.5 16.8-33.7 32.9-50.3 49.6-11.4 11.2-23.1 22.1-34.2 33.6 28.4 0.2 56.8 0 85.2 0.1 0 10.3-0.1 20.5 0 30.8q-70.9 0.1-141.9 0c0.1-9.9 0-19.8 0-29.7 8.1-8 16.2-16 24.5-23.9 10.8-10.5 21.3-21.3 32.3-31.7 9.4-9.2 18.8-18.4 28.2-27.7-3.2-0.4-6.3-0.2-9.4-0.2-25.2-0.1-50.4 0.1-75.6-0.1 0-10.1 0.2-20.3 0-30.4z"/>
		<path id="Layer" class="s1" d="m694 188.8c16.9-0.3 33.9 0 50.8-0.2 4.8 0.1 9.6-0.1 14.4 0.2 5.6 24.1 12.1 48 17.8 72 3.6-13.5 6.7-27.1 10.1-40.7 2.6-10.5 5.2-20.9 7.6-31.3 18.9-0.3 37.9 0 56.8-0.2 2.7 0 5.4 0 8.2 0.2q-0.1 71.9 0 143.7c-12.5 0-24.9 0.1-37.3 0 0-35.5 0-71 0-106.5q0-2.3-0.2-4.7c-7.7 29.1-14.9 58.4-22.5 87.6-2 7.9-4.1 15.7-6 23.6q-16.9 0-33.9 0-14.2-54.7-28.5-109.4c-0.1 36.5 0.1 72.9-0.1 109.4-12.4-0.1-24.8 0.2-37.2-0.1 0-47.8 0-95.7 0-143.6z"/>
		<path id="Layer" class="s1" d="m885.6 188.7c15.3 0.1 30.7-0.3 46.1 0.1-0.1 36.1 0 72.2-0.1 108.3q35.4 0.1 70.9 0c0.2 11.8 0 23.6 0.1 35.4-39 0.1-78 0-117 0 0-47.9 0-95.8 0-143.8z"/>
		<path id="Layer" class="s1" d="m1024.9 188.7c15.4-0.1 30.7-0.1 46.1 0.1q-0.1 71.8 0 143.7c-15.4 0-30.7 0.1-46.1 0 0-47.9 0-95.9 0-143.8z"/>
		<path id="Layer" class="s1" d="m1264.7 188.8c11.3-0.3 22.6-0.1 33.8-0.1 3 0.1 6.1-0.3 9 0.3 18.4 26.4 36.7 52.8 55.1 79.1 0.3-26.4 0.1-52.8 0.1-79.3 9.9-0.5 19.8 0 29.7-0.2 4.4 0.1 8.8 0 13.2 0.1q0 71.9 0 143.8c-13.5 0.1-27 0-40.4 0-0.9-0.1-2 0.2-2.7-0.3-18.4-26.1-36.5-52.3-54.9-78.4-0.3 26.3 0 52.5-0.2 78.7-14.2 0-28.4 0.1-42.7 0q0-71.9 0-143.7z"/>
	</g>
</svg>